<?xml version="1.0" encoding="iso-8859-1"?>
<!-- Uploaded to: SVG Repo, www.svgrepo.com, Generator: SVG Repo Mixer Tools -->
<!DOCTYPE svg PUBLIC "-//W3C//DTD SVG 1.1//EN" "http://www.w3.org/Graphics/SVG/1.1/DTD/svg11.dtd">
<svg height="800px" width="800px" version="1.1" id="Capa_1" xmlns="http://www.w3.org/2000/svg" xmlns:xlink="http://www.w3.org/1999/xlink" 
	 viewBox="0 0 330.753 330.753" xml:space="preserve">
<g>
	<path style="fill:#3F2D20;" d="M165.376,95.559c1.974,0,3.919-0.802,5.312-2.205c1.403-1.403,2.205-3.337,2.205-5.312
		c0-1.984-0.802-3.919-2.205-5.322c-1.393-1.394-3.327-2.196-5.312-2.196c-1.985,0-3.919,0.802-5.312,2.196
		c-1.403,1.402-2.205,3.338-2.205,5.322c0,1.975,0.802,3.909,2.205,5.312C161.457,94.757,163.401,95.559,165.376,95.559z"/>
	<path style="fill:#3F2D20;" d="M228.199,116.327c1.975,0,3.909-0.802,5.312-2.205c1.403-1.394,2.205-3.338,2.205-5.312
		c0-1.985-0.802-3.919-2.205-5.313c-1.403-1.403-3.338-2.204-5.312-2.204c-1.984,0-3.919,0.801-5.322,2.204
		c-1.393,1.394-2.195,3.328-2.195,5.313c0,1.974,0.802,3.918,2.195,5.312C224.28,115.525,226.214,116.327,228.199,116.327z"/>
	<path style="fill:#3F2D20;" d="M102.563,116.327c1.974,0,3.909-0.802,5.312-2.205c1.393-1.394,2.205-3.338,2.205-5.312
		c0-1.985-0.812-3.919-2.205-5.313c-1.403-1.403-3.338-2.204-5.312-2.204c-1.985,0-3.919,0.801-5.322,2.204
		c-1.393,1.394-2.195,3.328-2.195,5.313c0,1.974,0.801,3.918,2.195,5.312C98.644,115.525,100.578,116.327,102.563,116.327z"/>
	<path style="fill:#EF8829;" d="M294.37,177.31H51.119c-3.317,0-6.016,3.183-6.016,6.5c0,3.317,2.698,6.5,6.016,6.5H294.37
		c3.317,0,6.015-3.183,6.015-6.5C300.385,180.493,297.687,177.31,294.37,177.31z"/>
	<g>
		<path style="fill:#CE593F;" d="M259.888,214.391c1.232-0.635,2.289-1.245,3.582-1.952
			C262.265,213.078,261.071,213.725,259.888,214.391z"/>
		<path style="fill:#CE593F;" d="M266.935,210.65c2.859-1.391,7.007-3.224,13.927-5.938
			C276.111,206.383,271.462,208.408,266.935,210.65z"/>
		<path style="fill:#CE593F;" d="M301.058,222.49c0.141-0.456,0.309-0.899,0.402-1.374
			C301.365,221.589,301.2,222.035,301.058,222.49z"/>
		<path style="fill:#CE593F;" d="M287.967,213.31h-28.676c-9.37,8-18.045,13-25.571,19h54.247c5.824,0,10.784-4.403,12.79-9.525
			C298.741,217.687,293.775,213.31,287.967,213.31z"/>
	</g>
	<g>
		<path style="fill:#CE593F;" d="M31.707,226.556c-0.211-0.287-0.406-0.585-0.595-0.888
			C31.301,225.973,31.496,226.267,31.707,226.556z"/>
		<path style="fill:#CE593F;" d="M30.412,224.377c-0.144-0.3-0.29-0.6-0.413-0.911C30.122,223.779,30.267,224.076,30.412,224.377z"
			/>
		<path style="fill:#CE593F;" d="M32.583,227.617c0.248,0.277,0.489,0.555,0.759,0.811
			C33.074,228.174,32.832,227.893,32.583,227.617z"/>
		<path style="fill:#CE593F;" d="M29.503,221.872c-0.071-0.274-0.162-0.539-0.216-0.82
			C29.341,221.333,29.432,221.597,29.503,221.872z"/>
		<path style="fill:#CE593F;" d="M38.457,231.465c-0.532-0.178-1.055-0.369-1.556-0.608
			C37.402,231.097,37.923,231.287,38.457,231.465z"/>
		<path style="fill:#CE593F;" d="M35.272,229.972c-0.315-0.206-0.596-0.457-0.892-0.688
			C34.677,229.516,34.956,229.765,35.272,229.972z"/>
		<path style="fill:#CE593F;" d="M109.13,212.33c-2.022-0.682-3.965-1.32-5.819-1.917C105.407,211.092,107.37,211.742,109.13,212.33
			z"/>
		<path style="fill:#CE593F;" d="M115.848,213.986c0.067,0.027,0.17-0.675,0.187-0.675H52.809c-7.587,0-13.76,6.884-13.76,14.47
			c0,1.135,0.155,2.627,0.415,3.682c1.07,0.268,2.17,0.848,3.322,0.848h113.966C143.181,224.31,128.504,218.49,115.848,213.986z"/>
	</g>
	<g>
		<path style="fill:#FDD44B;" d="M249.186,205.677l-101.851-2.594c19.824,7.781,44.803,21.045,61.263,34.434
			C218.104,228.327,232.261,216.052,249.186,205.677z"/>
		<path style="fill:#FDD44B;" d="M198.902,243.69c0.481-0.505,0.999-1.042,1.535-1.593
			C199.897,242.652,199.385,243.184,198.902,243.69z"/>
	</g>
	<g>
		<path style="fill:#FDD44B;" d="M295.551,95.21c-1.434-1.431-2.937-2.843-4.515-4.232C292.614,92.367,294.118,93.779,295.551,95.21
			z"/>
		<path style="fill:#FDD44B;" d="M286.127,86.932c1.376,1.075,2.705,2.166,3.99,3.271C288.831,89.099,287.503,88.008,286.127,86.932
			z"/>
		<path style="fill:#FDD44B;" d="M280.608,82.882c1.327,0.921,2.623,1.854,3.879,2.8C283.23,84.736,281.935,83.803,280.608,82.882z"
			/>
		<path style="fill:#FDD44B;" d="M296.354,96.048c1.139,1.168,2.234,2.348,3.277,3.542
			C298.587,98.396,297.494,97.216,296.354,96.048z"/>
		<path style="fill:#FDD44B;" d="M304.218,105.337c2.21,3.068,4.108,6.204,5.691,9.397
			C308.324,111.541,306.428,108.404,304.218,105.337z"/>
		<path style="fill:#FDD44B;" d="M15.21,141.345c-0.107-0.917-0.176-1.846-0.176-2.791C15.034,139.499,15.103,140.427,15.21,141.345
			z"/>
		<path style="fill:#FDD44B;" d="M300.669,100.808c0.98,1.167,1.914,2.346,2.801,3.536
			C302.583,103.154,301.65,101.975,300.669,100.808z"/>
		<path style="fill:#FDD44B;" d="M273.132,78.025c2.01,1.206,3.934,2.447,5.81,3.705C277.066,80.472,275.143,79.231,273.132,78.025z
			"/>
		<path style="fill:#FDD44B;" d="M21.549,154.963c0.436,0.466,0.891,0.912,1.363,1.342C22.44,155.875,21.985,155.429,21.549,154.963
			z"/>
		<path style="fill:#FDD44B;" d="M25.418,158.323c-0.674-0.467-1.32-0.972-1.941-1.504
			C24.098,157.351,24.744,157.855,25.418,158.323z"/>
		<path style="fill:#FDD44B;" d="M20.981,154.339c-0.428-0.491-0.833-1.002-1.222-1.527
			C20.148,153.337,20.552,153.847,20.981,154.339z"/>
		<path style="fill:#FDD44B;" d="M310.061,115.058c-6.866-7.969-15.89-15.389-26.906-21.998
			c-28.664-17.198-66.933-26.67-107.756-26.67c-40.823,0-79.091,9.472-107.755,26.67c-27.463,16.477-42.587,37.973-42.587,60.528
			c0,1.654,0.169,3.12,0.488,4.681c3.861,2.641,8.524,4.042,13.544,4.042h252.575c13.264,0,24.055-10.642,24.055-23.907
			C315.719,130.376,313.768,122.638,310.061,115.058z M107.875,114.122c-1.403,1.403-3.338,2.205-5.312,2.205
			c-1.985,0-3.919-0.802-5.322-2.205c-1.393-1.394-2.195-3.338-2.195-5.312c0-1.985,0.802-3.919,2.195-5.313
			c1.403-1.402,3.337-2.204,5.322-2.204c1.974,0,3.909,0.801,5.312,2.204c1.393,1.394,2.205,3.328,2.205,5.313
			C110.08,110.784,109.268,112.728,107.875,114.122z M170.688,93.354c-1.393,1.404-3.338,2.205-5.312,2.205
			c-1.974,0-3.919-0.802-5.312-2.205c-1.403-1.402-2.205-3.337-2.205-5.312c0-1.984,0.802-3.919,2.205-5.322
			c1.393-1.394,3.328-2.196,5.312-2.196c1.985,0,3.919,0.802,5.312,2.196c1.403,1.402,2.205,3.338,2.205,5.322
			C172.893,90.017,172.091,91.951,170.688,93.354z M233.511,114.122c-1.403,1.403-3.338,2.205-5.312,2.205
			c-1.985,0-3.919-0.802-5.322-2.205c-1.393-1.394-2.195-3.338-2.195-5.312c0-1.985,0.802-3.919,2.195-5.313
			c1.403-1.402,3.338-2.204,5.322-2.204c1.975,0,3.909,0.801,5.312,2.204c1.403,1.394,2.205,3.328,2.205,5.313
			C235.716,110.784,234.914,112.728,233.511,114.122z"/>
		<path style="fill:#FDD44B;" d="M17.86,149.842c-0.394-0.737-0.743-1.501-1.06-2.282C17.117,148.341,17.466,149.104,17.86,149.842z
			"/>
		<path style="fill:#FDD44B;" d="M16.512,146.775c-0.214-0.586-0.409-1.18-0.578-1.786
			C16.103,145.595,16.298,146.189,16.512,146.775z"/>
		<path style="fill:#FDD44B;" d="M19.33,152.238c-0.507-0.731-0.983-1.484-1.409-2.27C18.347,150.754,18.823,151.507,19.33,152.238z
			"/>
		<path style="fill:#FDD44B;" d="M15.699,144.072c-0.146-0.615-0.261-1.242-0.358-1.874
			C15.438,142.831,15.553,143.456,15.699,144.072z"/>
	</g>
	<path style="fill:#FDD44B;" d="M298.687,247.31h-82.062c-7.52,8-11.954,12.301-12.077,12.446c-1.43,1.678-3.524,2.554-5.724,2.554
		c-0.054,0-0.109,0-0.164,0c-2.26,0-4.378-1.023-5.768-2.806c-3.357-4.311-7.619-7.194-12.5-12.194H42.091
		c-15.848,0-17.034,3.84-17.034,10.562c0,11.582,7.642,20.438,17.034,20.438h256.596c9.392,0,17.032-8.855,17.032-20.438
		C315.719,251.151,314.533,247.31,298.687,247.31z"/>
	<path style="fill:#3F2D20;" d="M312.417,233.637c2.745-4.407,4.344-9.602,4.344-15.167c0-7.602-2.968-14.52-7.8-19.671
		c3.973-3.831,6.458-9.196,6.458-15.137c0-4.313-1.313-8.318-3.551-11.657c11.31-6.857,18.884-19.287,18.884-33.452
		c0-28.044-17.716-54.118-49.885-73.42c-30.967-18.58-71.982-28.813-115.491-28.813c-43.508,0-84.524,10.232-115.491,28.813
		C17.716,84.435,0,110.509,0,138.554c0,14.165,7.573,26.594,18.883,33.451c-2.237,3.339-3.549,7.345-3.549,11.657
		c0,5.942,2.485,11.307,6.459,15.138c-4.831,5.151-7.801,12.067-7.801,19.67c0,5.565,1.593,10.761,4.338,15.169
		C9.354,235.96,0,242.106,0,258.394c0,19.872,14.386,36.038,32.068,36.038h266.619c17.681,0,32.066-16.167,32.066-36.038
		C330.753,242.102,321.394,235.957,312.417,233.637z M298.687,279.398H32.068c-9.393,0-17.034-9.422-17.034-21.004
		c0-6.722,1.186-11.129,17.034-11.129h148.324c4.88,3.873,9.143,7.972,12.5,12.283c1.389,1.783,3.508,2.845,5.768,2.895
		c0.055,0.001,0.109,0.001,0.164,0.001c2.2,0,4.294-0.965,5.724-2.644c0.123-0.145,4.557-5.299,12.078-12.535h82.061
		c15.847,0,17.032,4.406,17.032,11.129C315.719,269.976,308.078,279.398,298.687,279.398z M201.41,241.106
		c-0.895,0.91-1.748,1.787-2.508,2.584c-0.864-0.872-1.761-1.731-2.677-2.584c-16.709-15.536-41.893-27.777-63.915-36.394h114.283
		C226.672,216.898,210.58,231.776,201.41,241.106z M287.967,232.231H233.72c13.04-10.443,29.454-21.297,47.142-27.519h7.105
		c7.587,0,13.76,6.172,13.76,13.758C301.727,226.058,295.554,232.231,287.967,232.231z M294.37,189.678H36.384
		c-3.317,0-6.016-2.698-6.016-6.016c0-3.317,2.698-6.016,6.016-6.016H294.37c3.317,0,6.015,2.699,6.015,6.016
		C300.385,186.979,297.687,189.678,294.37,189.678z M42.786,204.712h41.187c7.074,1.851,42.201,11.396,72.779,27.519H42.786
		c-7.587,0-13.76-6.173-13.76-13.761C29.026,210.884,35.199,204.712,42.786,204.712z M15.034,138.554
		c0-22.555,15.124-44.051,42.587-60.528c28.664-17.198,66.933-26.67,107.756-26.67c40.823,0,79.091,9.472,107.756,26.67
		c27.462,16.477,42.586,37.973,42.586,60.528c0,13.265-10.791,24.057-24.055,24.057H39.089
		C25.825,162.61,15.034,151.818,15.034,138.554z"/>
</g>
</svg>